<?xml version="1.0" encoding="utf-8"?>
<!-- Generator: Adobe Illustrator 23.0.2, SVG Export Plug-In . SVG Version: 6.00 Build 0)  -->
<svg version="1.1" id="b6508004-6c42-4ebe-8fca-29884660373a"
	 xmlns="http://www.w3.org/2000/svg" xmlns:xlink="http://www.w3.org/1999/xlink" x="0px" y="0px" viewBox="0 0 811.8 620"
	 style="enable-background:new 0 0 811.8 620;" xml:space="preserve">
<style type="text/css">
	.st0{fill:#878484;}
	.st1{fill:#FFFFFF;}
	.st2{fill:#FFB8B8;}
	.st3{fill:#2F2E41;}
	.st4{fill:#3F3D56;}
</style>
<g id="gras">
	<path class="st0" d="M74.9,619l0,0.2c0-0.2-0.1-0.5-0.1-0.7c-0.1-0.4-0.1-0.8-0.2-1.2c-2.4-15.3-1.1-31.1,3.9-45.8
		c1-2.9,2.1-5.7,3.3-8.5c4.7-10.7,11.4-20.4,19.6-28.7c2.7-2.8,5.8-5.1,9.1-7c0.5-0.3,1-0.5,1.5-0.7c3.1-1.5,6.6-2,10-1.4
		c1.2,0.2,2.4,0.6,3.6,1.2c0.4,0.2,0.8,0.4,1.1,0.6c4.6,3,7.7,7.8,8.6,13.2c0.6,4,0.5,8.1-0.4,12c-0.1,0.4-0.2,0.8-0.3,1.1
		c-0.7,2.6-1.5,5.2-2.5,7.7C122.2,586.9,100.8,609.6,74.9,619z"/>
	<path class="st1" d="M125.5,526.6c-7.8,11.2-15.1,22.6-22,34.4c-6.9,11.7-13.4,23.7-19.4,36c-3.4,6.8-6.6,13.8-9.6,20.7
		c-0.3,0.8,0.8,1.4,1.1,0.7c5.5-12.5,11.4-24.7,17.8-36.7c6.4-12,13.3-23.8,20.6-35.3c4.1-6.4,8.3-12.8,12.7-19
		C127.1,526.5,126,525.9,125.5,526.6L125.5,526.6z"/>
	<path class="st1" d="M133.8,552.4c-5.8,7.6-14.4,12.6-23.9,13.9c-2.6,0.4-5.3,0.4-8,0.2c-0.9-0.1-0.9,1.2,0,1.3
		c9.9,0.8,19.7-2.3,27.4-8.6c2.1-1.8,4.1-3.8,5.7-6.1C135.5,552.4,134.3,551.7,133.8,552.4L133.8,552.4z"/>
	<path class="st1" d="M83.9,593.6c-1.4-1.9-2.5-4-3.4-6.2c-2-5-2.7-10.4-2.1-15.8c1-2.9,2.1-5.7,3.3-8.5c0.2,0.2,0.2,0.5,0.1,0.7
		c-0.9,2.1-1.5,4.2-1.9,6.5c-1.3,7.9,0.5,16,5.1,22.6c0.1,0.1,0.2,0.3,0.1,0.5c-0.2,0.4-0.6,0.5-1,0.4
		C84.1,593.8,84,593.7,83.9,593.6z"/>
	<path class="st1" d="M110.7,526.6c-1.6,6.4-1.1,13.1,1.4,19.2c0.2,0.3,0.6,0.4,0.9,0.2c0.3-0.2,0.4-0.6,0.2-0.9
		c-2.3-5.8-2.8-12.1-1.2-18.2c0.1-0.4-0.1-0.7-0.5-0.8C111.1,526.1,110.8,526.3,110.7,526.6L110.7,526.6z"/>
	<path class="st0" d="M74.7,587l0.1,0.2c-0.2-0.2-0.3-0.4-0.5-0.6c-0.2-0.3-0.5-0.6-0.7-0.9c-9.3-12.5-15.4-27-17.8-42.3
		c-0.5-3-0.8-6-1-9c-0.8-11.7,0.6-23.4,4.1-34.6c1.1-3.7,2.7-7.2,4.8-10.4c0.3-0.5,0.6-0.9,1-1.3c2-2.8,4.9-4.8,8.2-5.9
		c1.2-0.4,2.5-0.6,3.7-0.6c0.4,0,0.9,0,1.3,0c5.5,0.5,10.5,3.3,13.8,7.7c2.4,3.2,4.2,6.9,5.2,10.9c0.1,0.4,0.2,0.7,0.3,1.1
		c0.6,2.6,1.1,5.3,1.4,8C101.7,536.5,93.3,566.7,74.7,587z"/>
	<path class="st1" d="M76.6,481.6c-1.7,13.5-2.9,27.1-3.5,40.7c-0.7,13.6-0.8,27.2-0.5,40.8c0.2,7.6,0.6,15.2,1.1,22.8
		c0.1,0.8,1.4,0.9,1.3,0.1c-0.9-13.6-1.4-27.2-1.3-40.8c0.1-13.6,0.7-27.2,1.8-40.8c0.6-7.6,1.4-15.2,2.4-22.8
		C78,480.8,76.7,480.8,76.6,481.6L76.6,481.6z"/>
	<path class="st1" d="M96,500.7c-1.6,9.4-7,17.9-14.8,23.4c-2.2,1.6-4.5,2.8-7,3.9c-0.8,0.3-0.2,1.5,0.6,1.2
		c9.2-3.9,16.4-11.2,20.2-20.4c1.1-2.6,1.8-5.3,2.3-8C97.4,499.9,96.1,499.8,96,500.7L96,500.7z"/>
	<path class="st1" d="M70.9,560.3c-2.1-1.1-4.1-2.4-5.9-3.9c-4.1-3.5-7.3-8-9.2-13c-0.5-3-0.8-6-1-9c0.2,0.1,0.4,0.4,0.4,0.6
		c0.2,2.2,0.7,4.4,1.4,6.6c2.5,7.6,7.9,14,15,17.7c0.2,0.1,0.3,0.2,0.3,0.4c0,0.4-0.3,0.7-0.7,0.8C71.1,560.4,71,560.4,70.9,560.3z"
		/>
	<path class="st1" d="M63.5,488.5c1.5,6.4,5.1,12.1,10.1,16.4c0.3,0.2,0.7,0.1,0.9-0.2c0.2-0.3,0.1-0.7-0.2-0.9
		c-4.7-4-8.1-9.5-9.5-15.5c-0.1-0.4-0.5-0.6-0.8-0.5C63.7,487.9,63.4,488.2,63.5,488.5L63.5,488.5z"/>
	<path class="st0" d="M75.3,619.2l0.2,0.2c-0.2-0.1-0.5-0.2-0.7-0.2c-0.4-0.1-0.7-0.3-1.1-0.4c-14.5-5.5-27.5-14.5-37.8-26.1
		c-2-2.3-3.9-4.6-5.7-7c-7-9.4-12.1-20-15.2-31.3c-1.1-3.7-1.6-7.5-1.6-11.4c0-0.6,0-1.1,0.1-1.7c0.2-3.4,1.5-6.7,3.7-9.4
		c0.8-1,1.8-1.8,2.8-2.5c0.4-0.2,0.7-0.5,1.1-0.7c4.9-2.5,10.6-2.8,15.8-0.9c3.8,1.4,7.3,3.6,10.2,6.3c0.3,0.3,0.6,0.5,0.8,0.8
		c2,1.9,3.8,3.9,5.5,6C70.8,562.2,80,592.1,75.3,619.2z"/>
	<path class="st1" d="M20.1,529.4c5.8,12.3,12.2,24.4,18.9,36.2c6.8,11.8,14,23.4,21.6,34.7c4.3,6.3,8.7,12.5,13.2,18.7
		c0.5,0.7,1.7,0,1.1-0.7c-8.1-10.9-15.8-22.2-23.1-33.7c-7.3-11.5-14.1-23.3-20.4-35.4c-3.6-6.7-7-13.6-10.3-20.4
		C20.9,528,19.7,528.6,20.1,529.4z"/>
	<path class="st1" d="M46.7,535c3.7,8.8,3.8,18.8,0.2,27.7c-1,2.5-2.3,4.8-3.8,7c-0.5,0.7,0.7,1.4,1.1,0.7
		c5.6-8.2,7.8-18.3,6.1-28.1c-0.5-2.7-1.3-5.4-2.4-8C47.5,533.6,46.4,534.2,46.7,535L46.7,535z"/>
	<path class="st1" d="M57.7,598.8c-2.4,0.2-4.7,0.2-7.1-0.2c-5.3-0.7-10.4-2.8-14.7-6c-2-2.3-3.9-4.6-5.7-7c0.3,0,0.5,0.1,0.7,0.3
		c1.4,1.8,2.9,3.4,4.7,4.8c6.2,5.1,14.2,7.5,22.2,6.8c0.2,0,0.4,0,0.5,0.2c0.2,0.3,0.2,0.8-0.2,1C58,598.7,57.8,598.8,57.7,598.8z"
		/>
	<path class="st1" d="M12.8,542.3c4.7,4.6,10.8,7.5,17.3,8.3c0.4,0,0.7-0.3,0.7-0.7c0-0.4-0.3-0.7-0.7-0.7
		c-6.2-0.8-11.9-3.6-16.4-7.9C13.1,540.8,12.2,541.7,12.8,542.3L12.8,542.3z"/>
</g>
<g id="humman">
	<path class="st2" d="M165.9,444.2c4.9-3.4,6.1-10,2.8-14.9c-0.4-0.5-0.8-1-1.2-1.5l4.2-93l-21.2,2.4l1.2,91
		c-4,4.5-3.6,11.3,0.9,15.2C156.2,446.8,161.8,447.1,165.9,444.2z"/>
	<polygon class="st2" points="204.6,601.7 216.6,603.8 228.6,558.3 212.8,555.1 	"/>
	<path class="st3" d="M238,619.1l-37.9-6.7l0,0l2.6-14.7l0,0l23.3,4.1C234,603.3,239.4,611,238,619.1L238,619.1L238,619.1z"/>
	<polygon class="st2" points="171.4,607.8 183.7,607.8 189.5,560.5 171.4,560.5 	"/>
	<path class="st3" d="M207.3,619.1l-38.5,0l0,0l0-14.9l0,0l23.6,0C200.7,604.2,207.3,610.9,207.3,619.1L207.3,619.1L207.3,619.1z"/>
	<path class="st3" d="M223.6,594.8c-0.2,0-0.4,0-0.6,0l-14.4-1.2c-2.7-0.3-4.6-2.7-4.3-5.4c0-0.1,0-0.2,0-0.2l13.3-74.7l-9-47.5
		c-0.2-0.9-1-1.5-1.9-1.3c-0.7,0.1-1.3,0.7-1.3,1.5l-11.3,126.6c-0.3,2.6-2.6,4.6-5.2,4.4l-13.6-0.5c-2.5-0.2-4.4-2.2-4.5-4.6
		l-0.9-151.8l70.5-8.8l4.9,76l0,0.1l-17,83.7C227.8,593.3,225.8,594.8,223.6,594.8z"/>
	<circle class="st2" cx="193.2" cy="250" r="24.6"/>
	<path class="st0" d="M216.3,451.2c-3.8,0-7.6-1.1-10.9-3.1c-11.9-7.4-25.4-4.5-32.4-2.1c-1.4,0.5-3,0.3-4.2-0.5
		c-1.2-0.8-2.1-2.1-2.2-3.6l-12.7-113.6c-2.1-19,9.3-36.9,27.3-42.6l0,0c0.7-0.2,1.4-0.4,2.1-0.6c11.3-3.1,23.4-1,33,5.7
		c9.8,6.8,16.1,17.5,17.2,29.4L244,434.7c0.1,1.5-0.4,3-1.5,4C238.8,442.1,227.9,451.2,216.3,451.2z"/>
	<path class="st0" d="M177.6,352.7l-28.7-3.2c-3.1-0.3-5.4-3.2-5.1-6.3c0-0.3,0.1-0.6,0.2-0.8l7.3-27.8c1-8.7,8.9-15,17.6-13.9
		c8.7,1,14.9,8.8,14,17.5l1.1,28.7c0.1,3.2-2.3,5.8-5.5,5.9C178.1,352.8,177.8,352.8,177.6,352.7L177.6,352.7z"/>
	<g id="hand">
		<path class="st2" d="M260.9,444.4c3.4-4.8,2.3-11.5-2.5-15c-0.5-0.4-1.1-0.7-1.6-1l-28.1-88.8l-19.2,9.3l32.6,85.2
			c-2.2,5.5,0.5,11.8,6.1,14C252.8,450.1,258.1,448.5,260.9,444.4z"/>
		<path class="st0" d="M200.4,354.5c-1.2-1.1-1.9-2.7-1.8-4.4l0.9-28.7c-1-8.7,5.2-16.6,13.9-17.6c8.7-1,16.5,5.2,17.6,13.9
			l7.5,27.8c0.8,3-1,6.2-4,7c-0.3,0.1-0.5,0.1-0.8,0.2l-28.7,3.3C203.3,356.2,201.6,355.7,200.4,354.5z"/>
	</g>
	<path class="st3" d="M191.7,275.5c-0.4,0-0.9-0.1-1.3-0.2l-0.1,0c-21.6-3.3-26.4-15.8-27.4-21c-1.1-5.4,0.2-10.6,2.9-12.7
		c-1.5-4.8-1.3-9.1,0.7-12.7c3.5-6.3,11.1-8.4,12.1-8.7c6.1-4.5,13.3-1.5,14.6-0.9c11.7-4.3,16.2-0.7,17,0.1c5.2,0.9,8.4,3,9.5,6
		c2,5.7-4.3,12.9-4.6,13.2l-0.1,0.2l-9.4,0.4c-3.5,0.2-6.2,3.1-6,6.7c0,0.2,0,0.4,0.1,0.7l0,0c0.3,1.1,0.6,2.3,1,3.4
		c1.6,5,2.8,9.3,1.3,10.9c-0.7,0.6-1.7,0.8-2.6,0.5c-1.5-0.4-2.5-0.3-3,0.2c-0.8,0.9-0.5,3,0.7,6.1c0.8,2,0.4,4.2-1,5.8
		C194.9,274.8,193.3,275.5,191.7,275.5z"/>
</g>
<g id="card1">
	<path class="st4" d="M509.9,391.5h-121c-9.4,0-17-7.6-17-17V192.6c0-9.4,7.6-17,17-17h121c9.4,0,17,7.6,17,17v181.8
		C526.9,383.9,519.3,391.5,509.9,391.5z M388.9,177.6c-8.3,0-15,6.7-15,15v181.8c0,8.3,6.7,15,15,15h121c8.3,0,15-6.7,15-15V192.6
		c0-8.3-6.7-15-15-15H388.9z"/>
	<path class="st0" d="M491.4,263.1h-84c-4.7,0-8.5-3.8-8.5-8.5v-40c0-4.7,3.8-8.5,8.5-8.5h84c4.7,0,8.5,3.8,8.5,8.5v40
		C499.9,259.3,496.1,263.1,491.4,263.1z"/>
	<path class="st1" d="M485.4,300.6h-72c-4.4,0-8-3.6-8-8s3.6-8,8-8h72c4.4,0,8,3.6,8,8S489.8,300.6,485.4,300.6z"/>
	<path class="st1" d="M485.4,330.6h-72c-4.4,0-8-3.6-8-8s3.6-8,8-8h72c4.4,0,8,3.6,8,8S489.8,330.6,485.4,330.6z"/>
	<path class="st1" d="M485.4,360.6h-72c-4.4,0-8-3.6-8-8s3.6-8,8-8h72c4.4,0,8,3.6,8,8S489.8,360.6,485.4,360.6z"/>
</g>
<g id="card2">
	<path class="st4" d="M706.8,533.9h-121c-9.4,0-17-7.6-17-17V335.1c0-9.4,7.6-17,17-17h121c9.4,0,17,7.6,17,17v181.8
		C723.7,526.3,716.1,533.9,706.8,533.9z M585.8,320.1c-8.3,0-15,6.7-15,15v181.8c0,8.3,6.7,15,15,15h121c8.3,0,15-6.7,15-15V335.1
		c0-8.3-6.7-15-15-15H585.8z"/>
	<path class="st1" d="M682.3,363h-72c-4.4,0-8-3.6-8-8s3.6-8,8-8h72c4.4,0,8,3.6,8,8S686.7,363,682.3,363z"/>
	<path class="st1" d="M682.3,393h-72c-4.4,0-8-3.6-8-8s3.6-8,8-8h72c4.4,0,8,3.6,8,8S686.7,393,682.3,393z"/>
	<path class="st1" d="M688.3,469.5h-84c-4.7,0-8.5-3.8-8.5-8.5v-40c0-4.7,3.8-8.5,8.5-8.5h84c4.7,0,8.5,3.8,8.5,8.5v40
		C696.8,465.7,693,469.5,688.3,469.5z"/>
	<path class="st1" d="M682.3,505h-72c-4.4,0-8-3.6-8-8s3.6-8,8-8h72c4.4,0,8,3.6,8,8S686.7,505,682.3,505z"/>
</g>
<g id="card3">
	<path class="st4" d="M706.8,190.1h-121c-9.4,0-17-7.6-17-17V60.3c0-9.4,7.6-17,17-17h121c9.4,0,17,7.6,17,17v112.8
		C723.7,182.5,716.1,190.1,706.8,190.1z M585.8,45.3c-8.3,0-15,6.7-15,15v112.8c0,8.3,6.7,15,15,15h121c8.3,0,15-6.7,15-15V60.3
		c0-8.3-6.7-15-15-15H585.8z"/>
	<path class="st1" d="M682.3,155h-72c-4.4,0-8-3.2-8-7.1c0-3.9,3.6-7.1,8-7.1h72c4.4,0,8,3.2,8,7.1C690.3,151.8,686.7,155,682.3,155
		z"/>
	<path class="st1" d="M682.3,124.7h-72c-4.4,0-8-3.6-8-8s3.6-8,8-8h72c4.4,0,8,3.6,8,8S686.7,124.7,682.3,124.7z"/>
	<path class="st1" d="M682.3,94.7h-72c-4.4,0-8-3.6-8-8s3.6-8,8-8h72c4.4,0,8,3.6,8,8S686.7,94.7,682.3,94.7z"/>
</g>
<path id="earth" class="st4" d="M382,620H1c-0.6,0-1-0.4-1-1s0.4-1,1-1h381c0.6,0,1,0.4,1,1S382.6,620,382,620z"/>
</svg>
